<svg width="2048" height="2048" viewBox="0 0 2048 2048" fill="none" xmlns="http://www.w3.org/2000/svg">
<path d="M984 1493C902 1493 831.333 1477.33 772 1446C713.333 1414.67 668 1369.67 636 1311C604 1252.33 588 1182 588 1100C588 1016 606.333 943 643 881C679.667 819 732 771 800 737C868.667 702.333 949.667 685 1043 685C1131 685 1205.67 700 1267 730C1329 759.333 1376.33 801.333 1409 856C1441.67 910 1458 974 1458 1048C1458 1100.67 1450 1146.33 1434 1185C1418 1223 1395 1252.33 1365 1273C1335.67 1293 1301.33 1303 1262 1303C1206 1303 1163.33 1290 1134 1264C1105.33 1238 1091 1205 1091 1165V1014L1099 1004V904H1230V1145C1230 1161 1233.33 1172.67 1240 1180C1246.67 1187.33 1257.33 1191 1272 1191C1286.67 1191 1298.33 1187.67 1307 1181C1315.67 1173.67 1322 1160.67 1326 1142C1330 1122.67 1332 1095.67 1332 1061C1332 999.667 1322 950.667 1302 914C1282.67 877.333 1251.33 850.667 1208 834C1164.67 817.333 1107 809 1035 809C978.333 809 930 814 890 824C850 834 817.333 850.333 792 873C767.333 895.667 749.333 925.667 738 963C726.667 999.667 721 1045.33 721 1100C721 1169.33 730.333 1224.67 749 1266C768.333 1306.67 798.667 1335.67 840 1353C881.333 1371 934.667 1380 1000 1380C1032 1380 1061.33 1377.67 1088 1373C1114.67 1369 1139 1364 1161 1358L1185 1458C1155.67 1468.67 1125.33 1477 1094 1483C1063.33 1489.67 1026.67 1493 984 1493ZM960 1303C930 1303 902.333 1296 877 1282C851.667 1268 831.667 1246.33 817 1217C802.333 1187 795 1147.67 795 1099C795 1030.33 811 979.333 843 946C875 912.667 915 896 963 896C999 896 1028 905.333 1050 924C1072 942 1085.67 965.667 1091 995H1115L1106 1083H1091C1091 1063.67 1088 1047.67 1082 1035C1076 1022.33 1067 1013 1055 1007C1043.67 1001 1029.33 998 1012 998C984 998 963.667 1005.67 951 1021C939 1036.33 933 1062.33 933 1099C933 1135.67 939 1162 951 1178C963.667 1193.33 984 1201 1012 1201C1029.33 1201 1043.67 1198 1055 1192C1067 1186 1076 1176.67 1082 1164C1088 1151.33 1091 1135 1091 1115H1106V1204H1088C1084 1220 1077 1235.67 1067 1251C1057.67 1266.33 1044 1279 1026 1289C1008.67 1298.33 986.667 1303 960 1303Z" fill="white"/>
</svg>
